<svg xmlns="http://www.w3.org/2000/svg" version="1.1" xmlns:xlink="http://www.w3.org/1999/xlink" xmlns:svgjs="http://svgjs.dev/svgjs" viewBox="0 0 800 800" fill-opacity="0.1"><defs><linearGradient x1="50%" y1="0%" x2="50%" y2="100%" id="uundulate-grad"><stop stop-color="hsl(37, 99%, 67%)" stop-opacity="1" offset="45%"></stop><stop stop-color="hsl(316, 73%, 52%)" stop-opacity="1" offset="100%"></stop></linearGradient></defs><g stroke-width="2" stroke="url(#uundulate-grad)" fill="none"><path d="M666.8590940991727 157.99754500311826C690.1881341867612 265.74674288187157 665.3144678686217 377.2450445656393 567.0225668852413 512.0572748386594C468.7306659018609 646.8695051116797 286.3780828524152 841.7244235820322 195.05796937894752 805.0962503136157C103.73785590547988 768.4680770451996 127.39709341420127 487.5287867413482 128.68602221259658 336.24204315026077C129.9749510109919 184.95529955917345 133.2537542253653 150.04090568673382 201.24482761124443 78.91988107639685C269.2359009971235 7.798856466059931 358.0402022798313 -21.613388297423114 455.0431744648164 -5.1388749793563875C552.0461466498015 11.33563833871034 643.5300540115842 50.24834712436501 666.8590940991727 157.99754500311826C690.1881341867612 265.74674288187157 665.3144678686217 377.2450445656393 567.0225668852413 512.0572748386594 "></path><path d="M654.7291338893203 168.9976704655121C676.9977630638367 271.8491775315947 653.2547179419762 378.27937459337295 559.4306306396586 506.9637762176194C465.606543337341 635.648177841866 291.54271406287 821.6460545635659 204.3735148381964 786.6827982618961C117.20431561352268 751.7195419602258 139.78813323548405 483.5502193974587 141.018474361225 339.1401459696026C142.24881548696595 194.7300725417465 145.37858219159511 161.40269657259955 210.27915224175246 93.51444580818702C275.1797222919098 25.626195043774544 359.9474644254036 -2.4491295031865548 452.5412106019803 13.27654230042259C545.1349567785569 29.002214104031736 632.4605047148041 66.14616339942938 654.7291338893203 168.9976704655121C676.9977630638367 271.8491775315947 653.2547179419762 378.27937459337295 559.4306306396586 506.9637762176194 "></path><path d="M642.5991736794681 179.99773489274958C663.8073919409122 277.9515511461616 641.1949680153308 379.31364358595044 551.8386943940759 501.8702165614234C462.4824207728211 624.4267895368962 296.7073452733249 801.5676245099439 213.68906029744522 768.2692851750201C130.67077532156554 734.9709458400962 152.17917305676679 479.5715910184131 153.35092650985342 342.0381877537882C154.52267996294006 204.50478448916328 157.503410157825 172.76442642330915 219.31347687226054 108.108949504821C281.1235435866961 43.45347258633291 361.8547265709759 16.715068255893755 450.0392467391441 31.69189854504532C538.2237669073124 46.668728834196884 621.390955418024 82.0439186393375 642.5991736794681 179.99773489274958C663.8073919409122 277.9515511461616 641.1949680153308 379.31364358595044 551.8386943940759 501.8702165614234 "></path><path d="M630.4692134696159 190.9978603551433C650.6170208179876 284.0539857958847 629.1352180886853 380.3479736136842 544.2467581484932 496.7767179403834C459.3582982083011 613.2054622670826 301.87197648377975 781.4892554914779 223.00460575669405 749.8558331233003C144.13723502960835 718.2224107551224 164.57021287804957 475.5930236745237 165.68337865848184 344.93629057313C166.79654443891417 214.27955747173633 169.6282381240548 184.12621730917493 228.34780150276862 122.70351423661123C287.0673648814824 61.28081116404746 363.7619887165482 35.879327050130314 447.53728287630804 50.1073158248243C531.312577036068 64.33530459951828 610.3214061212439 97.94173491440188 630.4692134696159 190.9978603551433C650.6170208179876 284.0539857958847 629.1352180886853 380.3479736136842 544.2467581484932 496.7767179403834 "></path><path d="M618.3392685185524 201.99798581753714C637.4266649538522 290.156420445608 617.075483420829 381.38230364141793 536.6548371616996 491.6832193193435C456.23419090257016 601.984134997269 307.03662295302365 761.4108864730119 232.32016647473193 731.4423810715805C157.60370999644022 701.4738756701489 176.96126795812137 471.6144563306343 178.01584606589932 347.83439339247195C179.07042417367728 224.05433045430948 181.75308134907374 195.48800819504072 237.3821413920657 137.2980789684014C293.0112014350577 79.10814974176208 365.6692661209096 55.04358584436693 445.035334272261 68.52273310460333C524.4014024236125 82.00188036483974 599.2518720832528 113.83955118946625 618.3392685185524 201.99798581753714C637.4266649538522 290.156420445608 617.075483420829 381.38230364141793 536.6548371616996 491.6832193193435 "></path><path d="M606.2092930499111 212.99811127993087C624.2362785721386 296.2588550953311 605.0157182353944 382.4166336691517 529.0628856573278 486.5897206983036C453.1100530792612 590.7628077274555 312.20123890468943 741.3325174545462 241.6356966751917 713.0289290198608C171.07015444569396 684.7253405851754 189.35229252061504 467.63588898674493 190.34828295573868 350.73249621181367C191.34427339086233 233.82910343688252 193.8778940565145 206.8497990809065 246.41645076378472 151.89264370019163C298.95500747105496 96.93548831947669 367.5765130076928 74.20784463860349 442.53335515063577 86.93815038438231C517.4901972935788 99.66845613016113 588.1823075276836 129.73736746453062 606.2092930499111 212.99811127993087C624.2362785721386 296.2588550953311 605.0157182353944 382.4166336691517 529.0628856573278 486.5897206983036 "></path><path d="M594.0793328400589 223.99820622474653C611.0459074492142 302.36125922747624 592.955968308749 383.4509331793072 521.4709494117451 481.4961915596855C449.9859305147412 579.5414499400638 317.3658701151443 721.2541179185021 250.95124213444052 694.6154464505629C184.53661415373682 667.9767749826237 201.74333234189783 463.6572911252774 202.6807351043671 353.6305685135775C203.61813786683643 243.60384590187755 206.00272202274436 218.21155944919417 255.4507753942928 166.48717791440367C304.89882876584124 114.76279637961318 369.4837751532651 93.37207291526192 440.0313912877997 105.35353714658316C510.57900742233426 117.3350013779044 577.1127582309036 145.63515322201692 594.0793328400589 223.99820622474653C611.0459074492142 302.36125922747624 592.955968308749 383.4509331793072 521.4709494117451 481.4961915596855 "></path><path d="M581.9493878889955 234.9983316871403C597.8555515850787 308.4636938771994 580.8962336408927 384.48526320704093 513.8790284249515 476.4026929386456C446.86182320901025 568.3201226702502 322.5305165843882 701.1757489000361 260.26680285247846 676.2019943988431C198.0030891205687 651.2282398976502 214.13438742196962 459.67872378138793 215.01320251178458 356.5286713329192C215.89201760159955 253.3786188844506 218.12756524776324 229.57335033505996 264.48511528358995 181.0817426461939C310.8426653194166 132.5901349573278 371.3910525576265 112.53633170949848 437.5294426837527 123.76895442636214C503.66783280987875 135.0015771432258 566.0432241929125 161.53296949708124 581.9493878889955 234.9983316871403C597.8555515850787 308.4636938771994 580.8962336408927 384.48526320704093 513.8790284249515 476.4026929386456 "></path><path d="M569.8194124203542 245.9984571495341C584.6651652033652 314.5661285269225 568.8364684554581 385.5195932347747 506.2870769205797 471.3091943176057C443.7376853857013 557.0987954004368 327.69513253605396 681.0973798815701 269.5823330529382 657.7885423471234C211.46953356982243 634.4797048126766 226.52541198446335 455.70015643749855 227.34563940162394 359.42677415226115C228.1658668187846 263.1533918670237 230.25237795520405 240.93514122092574 273.51942465530897 195.67630737798407C316.7864713554138 150.4174735350424 373.29829944440974 131.70059050373504 435.02746356212754 142.18437170614112C496.7566276798452 152.6681529085472 554.9736596373434 177.43078577214567 569.8194124203542 245.9984571495341C584.6651652033652 314.5661285269225 568.8364684554581 385.5195932347747 506.2870769205797 471.3091943176057 "></path><path d="M557.689467469291 256.9985368355607C571.4748093392298 320.66851740027846 556.7767337876016 386.55387748614123 498.69515593378605 466.21564992019853C440.61357807997035 545.8774223542559 332.8597790052979 661.018965086737 278.8978937709761 639.3750445190365C224.9360085366543 617.7311239513359 238.91646706453514 451.721543317242 239.67810680904142 362.3248311952358C240.43974655354776 272.9281190732296 242.37722118022293 252.2968863304244 282.55376454460605 210.27082633340711C322.7303079089892 168.24476633638983 375.2055768487711 150.86480352160441 432.5255149580804 160.5997432095529C489.8454530673898 170.3346828975014 543.9041255993523 193.3285562708428 557.689467469291 256.9985368355607C571.4748093392298 320.66851740027846 556.7767337876016 386.55387748614123 498.69515593378605 466.21564992019853 "></path><path d="M545.5595072594388 267.9986622979544C558.2844382163051 326.7709520500016 544.7169838609564 387.588207513875 491.10321968820335 461.12215129915876C437.48945551545046 534.6560950844424 338.02441021575277 640.9405960682711 288.21343923022494 620.9615924673167C238.4024682446971 600.9825888663623 251.30750688581787 447.7429759733526 252.01055895766984 365.2229340145776C252.71361102952187 282.7028920558027 254.5020491464528 263.65867721629013 291.58808917511413 224.8653910651973C328.67412920377546 186.07210491410444 377.1128389943434 170.02906231584097 430.02355109524433 179.0151604893319C482.93426319614525 188.0012586628228 532.8345763025723 209.22637254590722 545.5595072594388 267.9986622979544C558.2844382163051 326.7709520500016 544.7169838609564 387.588207513875 491.10321968820335 461.12215129915876 "></path><path d="M533.4295470495863 278.9987877603482C545.0940670933805 332.87338669972485 532.6572339343109 388.6225375416087 483.51128344262065 456.02865267811876C434.36533295093045 523.4347678146289 343.1890414262076 620.8622270498051 297.52898468947376 602.5481404155969C251.86892795273997 584.2340537813889 263.69854670710066 443.7644086294631 264.3430111062983 368.12103683391945C264.9874755054959 292.4776650383758 266.6268771126826 275.020468102156 300.6224138056222 239.45995579698751C334.61795049856175 203.899443491819 379.02010113991565 189.19332111007753 427.52158723240814 197.43057776911087C476.0230733249007 205.66783442814426 521.765027005792 225.1241888209716 533.4295470495863 278.9987877603482C545.0940670933805 332.87338669972485 532.6572339343109 388.6225375416087 483.51128344262065 456.02865267811876 "></path><path d="M521.299586839734 289.99888270516385C531.903695970456 338.97579083186986 520.5974840076653 389.65683705176434 475.91934719703795 450.93512353950075C431.24121038641056 512.2134100272372 348.35367263666245 600.783827513761 306.8445301487226 584.1346578462991C265.33538766078277 567.4854881788372 276.0895865283834 439.7858107679956 276.67546325492674 371.01910913568315C277.26133998147003 302.2524075033707 278.7517050789125 286.38222847044364 309.65673843613024 254.05449001119956C340.56177179334804 221.7267515519555 380.92736328548796 208.35754938673597 425.01962336957206 215.84596453131172C469.1118834536562 223.33437967588753 510.69547770901204 241.02197457845784 521.299586839734 289.99888270516385C531.903695970456 338.97579083186986 520.5974840076653 389.65683705176434 475.91934719703795 450.93512353950075 "></path><path d="M509.1696266298817 300.99900816755763C518.7133248475316 345.07822548159305 508.53773408101995 390.691167079498 468.32741095145525 445.84162491846087C428.11708782189055 500.99208275742353 353.5183038471173 580.705458495295 316.16007560797146 565.7212057945793C278.8018473688256 550.7369530938636 288.4806263496662 435.8072434241062 289.00791540355516 373.91721195502504C289.53520445744414 312.0271804859438 290.8765330451423 297.7440193563094 318.6910630666383 268.6490547429898C346.50559308813433 239.5540901296701 382.83462543106026 227.52180818097253 422.517659506736 234.2613818110907C462.20069358241176 241.00095544120893 499.6259284122318 256.9197908535222 509.1696266298817 300.99900816755763C518.7133248475316 345.07822548159305 508.53773408101995 390.691167079498 468.32741095145525 445.84162491846087 "></path><path d="M497.03966642002945 311.99911837116235C505.5229537246071 351.1806448725272 496.47798415437455 391.72548184844266 460.73547470587255 440.7481110386318C424.9929652573706 489.77074022882096 358.68293505757214 560.6270742180401 325.4756210672203 547.3077384840706C292.2683070768684 533.9884027501009 300.8716661709489 431.8286608214278 301.3403675521836 376.8152995155778C301.8090689334182 321.80193820972784 303.0013610113722 309.10579498338615 327.7253876971464 283.2436042159909C352.4494143829206 257.38141344859565 384.74188757663256 246.68605171642002 420.01569564389985 252.67678383208062C455.2895037111671 258.66751594774126 488.5563791154518 272.8175918697975 497.03966642002945 311.99911837116235C505.5229537246071 351.1806448725272 496.47798415437455 391.72548184844266 460.73547470587255 440.7481110386318 "></path><path d="M484.9097062101771 322.99921331597795C492.3325826016826 357.2830490046722 484.41823422772904 392.7597813585983 453.14353846028985 435.6545819000138C421.86884269285065 478.5493824414293 363.847566268027 540.548674681996 334.7911665264691 528.8942559147727C305.73476678491124 517.2398371475492 313.26270599223164 427.85006295996027 313.672819700812 379.7133718173415C314.0829334093923 331.57668067472275 315.126188977602 320.4675553516738 336.7597123276545 297.838138430203C358.3932356777069 275.20872150873214 386.64914972220487 265.85027999307846 417.51373178106377 271.09217059428147C448.3783138399226 276.33406119548454 477.4868298186717 288.7153776272838 484.9097062101771 322.99921331597795C492.3325826016826 357.2830490046722 484.41823422772904 392.7597813585983 453.14353846028985 435.6545819000138 "></path><path d="M472.77974600032485 333.99933877837174C479.1422114787581 363.38548365439533 472.35848430108365 393.794111386332 445.55160221470715 430.5610832789739C418.7447201283307 467.3280551716157 369.0121974784818 520.4703056635301 344.10671198571794 510.48080386305287C319.20122649295405 500.49130206257564 325.65374581351443 423.87149561607083 326.0052718494404 382.61147463668334C326.3567978853664 341.3514536572959 327.25101694383187 331.8293462375396 345.79403695816256 312.4327031619932C364.3370569724932 293.03606008644675 388.5564118677772 285.014538787315 415.01176791822763 289.5075878740605C441.4671239686781 294.00063696080593 466.4172805218916 304.61319390234814 472.77974600032485 333.99933877837174C479.1422114787581 363.38548365439533 472.35848430108365 393.794111386332 445.55160221470715 430.5610832789739 "></path><path d="M460.64980104926155 344.9994642407655C465.95185561462256 369.4879183041185 460.2987496332272 394.82844141406576 437.9596812279135 425.46758465793397C415.6206128225998 456.1067279018022 374.17684394772573 500.3919366450641 353.4222727037558 492.0673518113331C332.6677014597859 483.7427669776022 338.0448008935862 419.8929282721814 338.3377392568579 385.50957745602517C338.6306776201295 351.12622663986895 339.37586016885075 343.1911371234054 354.82837684745965 327.0272678937834C370.28089352606855 310.86339866416137 390.4636892721385 304.1787975815516 412.50981931418056 307.9230051538395C434.55594935622264 311.66721272612733 455.34774648390055 320.5110101774125 460.64980104926155 344.9994642407655C465.95185561462256 369.4879183041185 460.2987496332272 394.82844141406576 437.9596812279135 425.46758465793397 "></path><path d="M448.51984083940926 355.9995591855812C452.76148449169807 375.5903224362636 448.2389997065818 395.8627409242213 430.3677449823308 420.3740555193159C412.4964902580798 444.8853701144105 379.34147515818063 480.31353710902 362.73781816300465 473.6538692420353C346.1341611678287 466.99420137505047 350.43584071486896 415.9143304107139 350.6701914054863 388.4076497577889C350.9045420961036 360.9009691048639 351.5006881350806 354.5528974916931 363.86270147796773 341.62180210799545C376.22471482085484 328.69070672429785 392.3709514177108 323.34302585821 410.0078554513445 326.33839191604034C427.64475948497807 329.3337579738706 444.27819718712044 336.40879593489876 448.51984083940926 355.9995591855812C452.76148449169807 375.5903224362636 448.2389997065818 395.8627409242213 430.3677449823308 420.3740555193159 "></path><path d="M436.38988062955696 366.99965413039683C439.5711133687736 381.6927265684086 436.17924977993636 396.89704043437695 422.7758087367481 415.2805263806979C409.37236769355985 433.6640123270188 384.50610636863547 460.235137572976 372.0533636222535 455.2403866727374C359.6006208758715 450.24563577249876 362.82688053615175 411.9357325492464 363.00264355411474 391.30572205955264C363.17840657207773 370.6757115698589 363.62551610131044 365.91465785998076 372.8970261084758 356.21633632220755C382.16853611564113 346.5180147844343 394.2782135632831 342.50725413486845 407.50589158850835 344.7537786782412C420.7335696137336 347.00030322161393 433.20864789034033 352.306581692385 436.38988062955696 366.99965413039683C439.5711133687736 381.6927265684086 436.17924977993636 396.89704043437695 422.7758087367481 415.2805263806979 "></path><path d="M424.2599204197046 377.9997643340015C426.38074224584904 387.79514595934273 424.1194998532909 397.93135520332163 415.1838724911654 410.1870125008689C406.2482451290399 422.4426697984162 389.6707375790903 440.15675329572093 381.36890908150235 436.8269193622286C373.0670805839144 433.49708542873617 375.2179203574345 407.9571499465679 375.33509570274316 394.2038096201054C375.45227104805184 380.45046929364287 375.7503440675403 377.2764334870575 381.93135073898384 370.81088579520866C388.1123574104274 364.34533810335984 396.1854757088554 361.67149767031594 405.0039277256722 363.1691806992311C413.82237974248903 364.66686372814627 422.1390985935602 368.2043827086603 424.2599204197046 377.9997643340015C426.38074224584904 387.79514595934273 424.1194998532909 397.93135520332163 415.1838724911654 410.1870125008689 "></path><path d="M412.1299602098523 388.9998897963953C413.1903711229245 393.89758060906587 412.05974992664545 398.9656852310553 407.5919362455827 405.093513879829C403.12412256451995 411.22134252860263 394.83536878954516 420.078384277255 390.6844545407512 418.4134673105088C386.5335402919572 416.74855034376264 387.60896017871727 403.97858260267844 387.6675478513716 397.10191243944723C387.7261355240259 390.22524227621597 387.8751720337701 388.6382243729233 390.9656753694919 385.40545052699883C394.0561787052137 382.17267668107445 398.0927378544277 380.8357564645525 402.50196386283613 381.5845979790101C406.9111898712445 382.33343949346767 411.0695492967801 384.1021989837247 412.1299602098523 388.9998897963953C413.1903711229245 393.89758060906587 412.05974992664545 398.9656852310553 407.5919362455827 405.093513879829 "></path></g></svg>