<svg xmlns="http://www.w3.org/2000/svg" version="1.1" xmlns:xlink="http://www.w3.org/1999/xlink" xmlns:svgjs="http://svgjs.dev/svgjs" viewBox="0 0 800 800"><defs><linearGradient x1="50%" y1="0%" x2="50%" y2="100%" id="ccchaos-grad"><stop stop-color="hsl(206, 75%, 49%)" stop-opacity="1" offset="0%"></stop><stop stop-color="hsl(331, 90%, 56%)" stop-opacity="1" offset="100%"></stop></linearGradient></defs><g stroke-width="2" stroke="url(#ccchaos-grad)" fill="none" stroke-linecap="round"><path d="M386.54 118.1C396.09 123.05 405.71 127.08 415.37 129.71 425.05 130.27 434.8 129.34 444.62 127.3 454.48 124.19 464.44 121.24 474.49 119.11 484.62 117.9 494.86 118.58 505.21 121.36 515.65 125.89 526.2 132.41 536.81 140.53 547.5 149.57 558.21 159.29 568.88 169.18 579.52 178.59 590.01 187.39 600.23 195.35 610.24 202.07 619.81 207.84 628.8 212.81 637.33 216.7 645.07 220.19 651.86 223.53 660.46 228.09 670.57 239.83 671.9 247.76 671.71 253.75 670.44 260.56 668.22 268.11 665.77 276.07 662.76 284.64 659.42 293.66 656.52 302.97 653.77 312.58 651.42 322.35 650.18 332.26 649.72 342.22 650.17 352.12 652.05 362.06 654.93 371.87 658.71 381.46 663.69 391.06 669.09 400.2 674.62 408.89 680.54 417.6 685.99 425.89 690.67 433.84 694.91 441.9 697.92 449.76 699.53 457.54 700.15 465.64 699.18 473.91 696.64 482.52 693 491.75 687.88 501.61 681.45 512.24 674.15 523.68 665.81 536 656.64 549.17 647.03 562.9 636.9 577.12 626.44 591.47 615.94 605.43 605.35 618.61 594.8 630.38 584.48 640.34 574.32 647.91 564.38 652.62 554.78 654.76 545.4 653.96 536.24 650.5 527.41 645.72 518.74 639.79 510.2 633.83 501.91 629.61 493.65 627.57 485.4 628.66 477.3 633.78 469.11 642.6 460.82 654.65 452.6 669.1 444.2 684.33 435.62 698.56 427.06 710.32 418.28 717.83 409.28 719.98 400.28 716.94 391.05 708.65 381.61 696.28 372.17 682.33 362.75 668.59 353.39 657.08 344.05 649.59 334.78 646.6 325.65 648.1 316.55 653.98 307.61 662.49 298.87 672.02 290.2 681.62 281.76 689.08 273.6 693.23 265.53 693.89 257.76 690.21 250.34 682.5 243.01 671.6 236.04 658.13 229.46 643.18 222.97 627.79 216.85 612.88 211.13 599.2 205.44 587.32 200.12 577.49 195.16 569.69 187.82 562.07 174.45 554.95 168.27 552.82 161.99 550.49 149.9 540.7 144.07 532.73 140 526.55 136.11 519.39 132.46 511.4 128.63 503.07 125.1 494.12 121.91 484.71 118.67 475.14 115.86 465.27 113.56 455.22 111.36 445.13 109.75 434.94 108.8 424.71 108.08 414.47 108.1 404.42 108.84 394.55 109.87 384.65 111.61 374.85 114.04 365.12 116.72 355.26 120.03 345.36 123.93 335.34 127.98 325.1 132.54 314.65 137.54 303.96 142.57 293 147.96 281.78 153.64 270.35 159.24 258.81 165.06 247.22 171.08 235.75 176.91 224.58 182.9 213.89 189.01 203.96 194.9 194.87 200.92 186.93 207.07 180.37 213 174.96 219.08 171.02 225.32 168.5 231.38 166.75 237.64 165.94 244.12 165.7 250.46 165.09 257.06 164.18 263.92 162.54 270.69 159.39 277.76 155.01 285.11 149.35 292.42 142.24 300.03 134.41 307.94 126.39 315.82 118.5 324 111.73 332.47 106.71 340.92 103.52 349.67 102.76 358.68 104.44 367.69 107.72 376.97 112.52 386.53 118.1" stroke-dasharray="10 7" transform="rotate(0, 400, 400)"></path><path d="M390.49 129.22C399.77 134.13 409.13 138.21 418.56 140.98 428.01 141.79 437.55 141.15 447.17 139.39 456.83 136.47 466.6 133.52 476.45 131.16 486.36 129.46 496.37 129.41 506.46 131.25 516.61 134.73 526.82 140.19 537.05 147.34 547.29 155.61 557.5 164.85 567.59 174.56 577.59 184.15 587.36 193.46 596.8 202.18 605.98 209.91 614.66 216.78 622.72 222.83 630.3 227.79 637.09 232.16 642.95 236.15 650.24 241.17 658.3 251.95 659 258.59 658.57 263.44 657.2 269 655.03 275.26 652.75 281.81 650.02 288.99 647.03 296.71 644.53 304.66 642.21 313.03 640.26 321.7 639.36 330.51 639.17 339.51 639.8 348.61 641.73 357.75 644.53 366.92 648.14 376.08 652.83 385.23 657.89 394.13 663.06 402.79 668.61 411.48 673.75 420 678.21 428.4 682.33 436.95 685.34 445.52 687.11 454.25 688.02 463.3 687.5 472.7 685.53 482.57 682.57 492.96 678.22 503.99 672.61 515.7 666.18 527.93 658.7 540.78 650.36 554.1 641.54 567.5 632.13 580.9 622.31 593.88 612.35 606 602.21 616.88 592.01 625.99 581.93 633.17 571.92 637.94 562.05 640.03 552.44 640.02 543 637.64 533.74 633.34 524.76 628.47 515.93 623.24 507.24 618.63 498.78 616.18 490.38 616.15 482.02 619.21 473.82 625.95 465.59 635.87 457.3 648.38 449.1 662.62 440.78 677.08 432.34 690.17 423.94 700.66 415.37 707.04 406.65 708.42 397.94 705.07 389.05 696.97 380.01 685.16 370.97 671.9 361.99 658.75 353.11 647.49 344.24 639.77 335.48 636.07 326.87 636.48 318.3 641.06 309.9 648.34 301.72 656.99 293.59 666.24 285.7 674.04 278.09 679.26 270.55 681.65 263.31 680.17 256.41 674.9 249.57 666.47 243.08 655.15 236.95 641.86 230.86 627.49 225.13 612.84 219.76 598.7 214.4 585.66 209.36 574.13 204.64 564.31 199.86 556.39 195.36 550.11 191.12 545.19 184.65 540.33 172.39 533.54 166.5 529.74 162.38 526.97 158.4 523.35 154.58 518.83 150.53 514.01 146.66 508.26 143.02 501.68 139.21 494.82 135.69 487.23 132.51 479.03 129.29 470.68 126.5 461.85 124.19 452.64 121.99 443.37 120.36 433.8 119.38 423.97 118.62 414.13 118.59 404.28 119.26 394.42 120.21 384.53 121.87 374.59 124.2 364.57 126.77 354.46 129.97 344.21 133.75 333.78 137.69 323.22 142.13 312.45 147.01 301.49 151.94 290.44 157.23 279.25 162.82 268.02 168.34 256.92 174.11 246 180.07 235.45 185.87 225.42 191.82 216.09 197.91 207.7 203.79 200.22 209.8 193.95 215.93 189.02 221.84 185.06 227.9 182.36 234.09 180.81 240.1 179.66 246.29 179.09 252.66 178.74 258.9 177.71 265.36 176.13 272.04 173.66 278.64 169.68 285.49 164.52 292.61 158.23 299.66 150.75 307.01 142.8 314.62 134.91 322.21 127.38 330.08 121.09 338.24 116.61 346.38 113.92 354.81 113.57 363.52 115.51 372.22 118.91 381.2 123.7 390.48 129.22" stroke-dasharray="10 8" transform="rotate(4.04, 400, 400)"></path><path d="M394.96 140.34C403.97 145.21 413.07 149.31 422.25 152.21 431.44 153.26 440.74 152.93 450.12 151.46 459.53 148.78 469.03 145.91 478.61 143.41 488.23 141.33 497.92 140.63 507.66 141.62 517.42 144.07 527.19 148.43 536.93 154.53 546.64 161.85 556.25 170.36 565.68 179.62 574.97 189.09 583.97 198.59 592.58 207.8 600.9 216.3 608.69 224.13 615.82 231.23 622.5 237.32 628.39 242.74 633.37 247.63 639.48 253.71 645.77 264.96 645.97 271.06 644.68 277.63 638.63 293.84 634.79 303.51 632.68 310.29 630.75 317.56 629.2 325.24 628.61 333.01 628.66 341.11 629.44 349.47 631.4 357.87 634.13 366.47 637.56 375.24 641.98 384.02 646.71 392.76 651.53 401.48 656.72 410.23 661.55 419.02 665.78 427.91 669.75 436.94 672.74 446.18 674.62 455.72 675.78 465.54 675.63 475.79 674.17 486.52 671.83 497.61 668.19 509.22 663.36 521.31 657.75 533.61 651.12 546.19 643.62 558.82 635.61 571.14 626.96 582.99 617.84 593.99 608.51 603.83 598.9 612.14 589.15 618.52 579.43 623.09 569.7 625.39 560.03 625.38 550.54 623.82 541.15 620.53 531.92 616.02 522.89 611.64 514 607.54 505.25 604.56 496.68 603.99 488.2 605.91 479.79 610.75 471.52 618.83 463.27 629.56 455 642.25 446.82 656.08 438.58 669.64 430.28 681.55 422.02 690.8 413.65 696.12 405.19 696.79 396.73 693.2 388.16 685.3 379.5 674.04 370.83 661.47 362.26 648.91 353.83 637.93 345.41 630.06 337.12 625.73 329.02 625.15 320.93 628.47 313.04 634.51 305.38 642.16 297.76 650.84 290.38 658.69 283.29 664.62 276.24 668.38 269.49 668.83 263.05 665.82 256.66 659.83 250.59 650.84 244.85 639.55 239.14 626.72 233.74 612.98 228.68 599.09 223.58 585.61 218.78 573.06 214.27 561.76 209.67 551.95 205.31 543.61 201.18 536.63 194.85 528.8 182.73 518.01 176.87 513.41 170.79 508.84 159.05 496.61 153.5 488.56 149.72 482.78 146.23 476.26 143.06 469.07 139.87 461.77 137.09 453.87 134.79 445.44 132.6 436.97 130.96 428.03 129.95 418.66 129.17 409.3 129.08 399.74 129.69 390.02 130.56 380.3 132.12 370.39 134.34 360.32 136.8 350.21 139.88 339.91 143.52 329.43 147.33 318.93 151.64 308.27 156.38 297.52 161.19 286.84 166.36 276.18 171.85 265.68 177.28 255.48 182.97 245.67 188.85 236.44 194.61 227.84 200.52 220.08 206.57 213.36 212.44 207.5 218.44 202.8 224.54 199.31 230.45 196.54 236.48 194.77 242.64 193.82 248.63 192.93 254.77 192.27 261.07 191.52 267.23 189.86 273.58 187.49 280.14 184.14 286.59 179.35 293.28 173.49 300.2 166.69 307.06 158.97 314.18 151.02 321.56 143.37 328.89 136.27 336.5 130.52 344.39 126.59 352.25 124.41 360.4 124.44 368.83 126.62 377.24 130.11 385.95 134.9 394.95 140.34" stroke-dasharray="1 6" transform="rotate(8.08, 400, 400)"></path><path d="M399.71 151.46C408.44 156.27 417.26 160.39 426.16 163.4 435.08 164.68 444.09 164.66 453.17 163.51 462.28 161.11 471.46 158.38 480.69 155.83 489.94 153.47 499.24 152.24 508.53 152.46 517.82 153.96 527.08 157.23 536.25 162.2 545.35 168.46 554.29 176.04 563 184.6 571.53 193.64 579.73 203.01 587.49 212.39 594.96 221.38 601.86 229.92 608.11 237.89 613.92 245.03 618.97 251.53 623.16 257.45 628.22 264.94 633.02 277.88 632.87 284.15 631.51 290.39 626 304.96 622.69 313.5 620.95 319.42 619.41 325.84 618.22 332.73 617.92 339.67 618.19 347.03 619.1 354.78 621.08 362.54 623.73 370.66 626.99 379.12 631.13 387.58 635.54 396.2 640.02 404.96 644.87 413.76 649.39 422.77 653.38 432.02 657.18 441.38 660.12 451.06 662.08 461.1 663.42 471.33 663.6 481.96 662.59 492.99 660.79 504.18 657.81 515.71 653.7 527.44 648.87 539.08 643.06 550.66 636.38 561.9 629.19 572.54 621.33 582.36 612.95 591.01 604.3 598.41 595.32 604.17 586.1 608.02 576.85 610.31 567.51 610.66 558.15 609.16 548.89 606.71 539.69 603.15 530.58 599.04 521.63 595.61 512.78 592.96 504.05 591.79 495.48 593.09 486.99 596.82 478.59 603.2 470.31 612.34 462.06 623.57 453.85 636.2 445.72 649.43 437.57 662 429.41 672.7 421.29 680.75 413.11 685.07 404.9 685.11 396.69 681.3 388.42 673.63 380.1 662.92 371.78 651.02 363.6 639.05 355.59 628.4 347.58 620.43 339.74 615.58 332.1 614.09 324.47 616.23 317.05 621.03 309.87 627.6 302.71 635.52 295.81 643.14 289.18 649.45 282.57 654.22 276.25 656.25 270.23 655.26 264.23 651.57 258.53 644.96 253.14 635.87 247.75 624.97 242.64 612.67 237.82 599.66 232.96 586.47 228.35 573.61 224 561.49 219.54 550.36 215.3 540.4 211.25 531.63 207.04 524.14 202.99 517.68 199.09 512.05 192.99 505.24 181.1 493.53 175.33 487.51 171.33 483.49 167.5 478.94 163.9 473.79 160.16 468.59 156.7 462.75 153.56 456.26 150.41 449.71 147.66 442.55 145.37 434.79 143.19 427 141.56 418.66 140.53 409.8 139.72 400.94 139.58 391.79 140.12 382.39 140.91 373 142.38 363.37 144.48 353.54 146.82 343.73 149.76 333.74 153.25 323.62 156.92 313.56 161.08 303.45 165.67 293.38 170.34 283.5 175.38 273.81 180.73 264.45 186.06 255.52 191.65 247.12 197.44 239.44 203.13 232.41 208.99 226.27 214.98 221.16 220.83 216.78 226.79 213.42 232.87 211.06 238.77 209.14 244.79 207.92 250.92 207.19 256.89 206.22 262.99 205.19 269.24 203.8 275.34 201.38 281.62 198.13 288.08 193.92 294.43 188.38 300.98 181.92 307.75 174.75 314.45 166.93 321.38 159.12 328.56 151.81 335.68 145.21 343.07 140.03 350.72 136.68 358.33 134.99 366.22 135.39 374.39 137.77 382.53 141.35 390.97 146.1 399.7 151.46" stroke-dasharray="7 8" transform="rotate(12.12, 400, 400)"></path><path d="M404.47 162.58C412.91 167.33 421.44 171.44 430.04 174.55 438.65 176.06 447.33 176.33 456.06 175.51 464.81 173.43 473.61 170.91 482.43 168.4 491.26 165.87 500.08 164.23 508.86 163.79 517.62 164.41 526.29 166.65 534.82 170.5 543.26 175.61 551.5 182.12 559.44 189.76 567.2 198.09 574.59 207.02 581.5 216.23 588.13 225.35 594.19 234.29 599.6 242.87 604.61 250.85 608.89 258.29 612.38 265.2 616.53 274.24 620.13 289.65 619.74 296.67 618.39 303.27 613.53 317.53 610.74 325.53 609.37 330.97 608.18 336.88 607.32 343.26 607.28 349.63 607.75 356.47 608.78 363.76 610.77 371.05 613.33 378.79 616.41 386.98 620.3 395.17 624.4 403.63 628.55 412.36 633.06 421.12 637.27 430.18 641.02 439.54 644.64 448.98 647.5 458.76 649.49 468.85 650.98 479.03 651.42 489.52 650.79 500.23 649.48 510.92 647.08 521.7 643.65 532.41 639.55 542.8 634.51 552.81 628.63 562.18 622.25 570.78 615.19 578.33 607.57 584.57 599.65 589.61 591.34 593.06 582.74 594.79 574.04 595.34 565.18 594.34 556.24 592.03 547.33 589.32 538.42 586.09 529.55 582.87 520.78 580.75 512.08 579.75 503.47 580.42 494.99 583.5 486.57 588.83 478.25 596.47 470.02 606.35 461.85 617.81 453.74 630.14 445.69 642.61 437.66 654.11 429.66 663.6 421.69 670.5 413.71 673.89 405.73 673.36 397.77 669.4 389.78 661.96 381.79 651.81 373.8 640.56 365.98 629.18 358.36 618.88 350.73 610.89 343.3 605.61 336.08 603.32 328.87 604.35 321.88 607.93 315.13 613.37 308.39 620.39 301.91 627.54 295.69 633.93 286.5 640.96 269.53 639.51 261.74 630.52 256.61 621.77 251.74 611.32 247.13 599.72 242.45 587.46 238 574.98 233.77 562.74 229.42 550.99 225.26 540 221.27 529.93 217.11 520.84 213.1 512.71 209.22 505.44 205.13 499.07 201.17 493.31 197.32 487.96 193.27 483.19 189.33 478.51 185.55 473.77 181.58 469.29 177.79 464.52 174.22 459.36 170.53 454.27 167.11 448.68 164.01 442.56 160.91 436.43 158.2 429.74 155.93 422.49 153.78 415.23 152.15 407.42 151.1 399.07 150.27 390.73 150.09 382.08 150.55 373.17 151.27 364.28 152.63 355.15 154.61 345.86 156.82 336.63 159.62 327.28 162.95 317.89 166.46 308.64 170.45 299.45 174.88 290.44 179.39 281.7 184.28 273.28 189.47 265.33 194.68 257.84 200.14 250.99 205.82 244.9 211.42 239.4 217.2 234.77 223.12 231.06 228.92 227.88 234.84 225.52 240.87 223.92 246.76 222.46 252.75 221.41 258.85 220.55 264.8 219.19 270.87 217.55 277.07 215.36 283.14 212.09 289.35 207.97 295.73 202.94 302 196.77 308.45 189.86 315.09 182.48 321.66 174.69 328.44 167.14 335.44 160.27 342.38 154.23 349.57 149.65 357 146.86 364.39 145.66 372.04 146.41 379.95 148.98 387.85 152.61 396.02 157.32 404.46 162.57" stroke-dasharray="2 9" transform="rotate(16.16, 400, 400)"></path><path d="M408.99 173.7C417.13 178.37 425.34 182.47 433.6 185.66 441.87 187.38 450.18 187.95 458.53 187.47 466.87 185.73 475.24 183.47 483.59 181.08 491.93 178.49 500.23 176.56 508.44 175.58 516.61 175.44 524.65 176.73 532.5 179.49 540.25 183.44 547.75 188.79 554.92 195.35 561.9 202.75 568.49 210.95 574.59 219.66 580.42 228.56 585.69 237.53 590.33 246.39 594.61 254.89 598.22 263.03 601.09 270.75 603.59 277.88 605.36 284.57 606.38 290.89 607.14 299.41 605.37 315.01 603.3 322.62 601.21 330.08 597.49 346.3 596.51 355.3 596.71 361.4 597.35 367.94 598.47 374.93 600.45 381.91 602.92 389.37 605.83 397.31 609.47 405.25 613.27 413.51 617.11 422.06 621.28 430.64 625.2 439.52 628.7 448.69 632.12 457.89 634.88 467.36 636.87 477.04 638.45 486.71 639.1 496.52 638.8 506.36 637.92 516.03 636.04 525.55 633.21 534.73 629.79 543.46 625.47 551.57 620.35 558.84 614.76 565.3 608.48 570.62 601.63 574.63 594.47 577.63 586.88 579.22 578.94 579.4 570.87 578.81 562.57 577.13 554.13 574.65 545.67 572.27 537.15 569.86 528.62 567.9 520.14 567.31 511.69 568.05 503.3 570.5 495 575.18 486.75 581.85 478.57 590.43 470.48 600.76 462.45 612.18 454.48 624 446.57 635.58 438.7 645.96 430.87 654.25 423.08 660.05 415.32 662.59 407.58 661.56 399.86 657.49 392.15 650.31 384.47 640.69 376.79 630.09 369.31 619.3 362.05 609.38 354.78 601.43 347.72 595.81 340.89 592.82 334.05 592.83 327.45 595.24 321.08 599.53 314.72 605.54 308.6 612.02 302.74 618.19 294.06 625.95 277.98 629.06 270.56 623.3 265.65 616.79 260.97 608.41 256.53 598.6 251.99 587.79 247.66 576.32 243.53 564.63 239.26 552.95 235.16 541.62 231.21 530.86 227.09 520.73 223.09 511.35 219.22 502.73 215.16 494.87 211.2 487.66 207.37 480.98 203.33 474.88 199.42 469.08 195.66 463.43 191.74 458.12 187.99 452.76 184.45 447.22 180.82 441.82 177.46 436.12 174.41 430.05 171.36 424.02 168.7 417.56 166.47 410.65 164.35 403.73 162.73 396.36 161.68 388.52 160.83 380.69 160.61 372.59 161 364.3 161.64 356.04 162.9 347.61 164.74 339.1 166.82 330.67 169.46 322.22 172.62 313.85 175.96 305.65 179.78 297.62 184.01 289.9 188.36 282.47 193.06 275.47 198.09 269.02 203.14 262.99 208.45 257.62 213.99 253 219.48 248.83 225.15 245.43 230.98 242.79 236.71 240.44 242.57 238.69 248.54 237.43 254.38 236.05 260.33 234.81 266.39 233.51 272.31 231.53 278.35 229.1 284.5 226.03 290.52 221.89 296.69 216.96 302.99 211.22 309.19 204.55 315.55 197.36 322.08 189.91 328.53 182.32 335.18 175.14 342.01 168.79 348.8 163.36 355.8 159.4 363.02 157.17 370.21 156.43 377.64 157.5 385.29 160.23 392.94 163.91 400.83 168.55 408.98 173.69" stroke-dasharray="1 9" transform="rotate(20.200000000000003, 400, 400)"></path><path d="M413.02 184.82C420.84 189.39 428.71 193.47 436.6 196.73 444.5 198.64 452.41 199.49 460.32 199.35 468.23 197.98 476.12 196.03 483.95 193.83 491.76 191.29 499.5 189.18 507.1 187.81 514.65 187.04 522.03 187.49 529.19 189.25 536.23 192.06 542.99 196.23 549.4 201.62 555.63 207.92 561.45 215.15 566.78 223.08 571.87 231.41 576.41 240.06 580.36 248.82 584.01 257.48 587.02 265.97 589.38 274.21 591.43 282.04 592.83 289.52 593.59 296.66 594.13 303.32 594.11 309.7 593.56 315.86 592.48 324.47 589.07 341.13 587.31 349.57 586.6 355.12 586.06 360.94 585.79 367.07 586.19 373.14 586.98 379.58 588.18 386.41 590.14 393.22 592.52 400.46 595.26 408.15 598.65 415.84 602.17 423.81 605.7 432.02 609.55 440.25 613.17 448.71 616.43 457.38 619.64 466.02 622.27 474.82 624.24 483.68 625.87 492.45 626.68 501.17 626.65 509.73 626.13 518.01 624.7 525.94 622.41 533.34 619.6 540.23 615.96 546.37 611.56 551.58 606.71 556.05 601.2 559.43 595.11 561.62 588.71 563.06 581.85 563.37 574.62 562.63 567.21 561.53 559.53 559.8 551.67 557.73 543.74 556.15 535.69 554.93 527.59 554.47 519.51 555.51 511.4 557.94 503.32 562.01 495.29 568.03 487.29 575.75 479.35 584.96 471.47 595.43 463.64 606.56 455.87 617.69 448.15 628.29 440.48 637.51 432.88 644.64 425.3 649.41 417.76 651.17 410.28 649.71 402.81 645.56 395.38 638.65 388 629.57 380.62 619.6 373.46 609.41 366.53 599.9 359.59 592.04 352.87 586.16 346.38 582.57 339.89 581.67 333.62 582.99 327.6 586.14 321.56 591.07 315.76 596.72 310.2 602.44 301.96 610.4 286.62 617.01 279.5 614.15 274.77 609.81 270.24 603.57 265.92 595.76 261.51 586.77 257.26 576.79 253.19 566.2 248.99 555.27 244.93 544.27 241 533.47 236.91 522.95 232.93 512.91 229.07 503.43 225.03 494.49 221.09 486.13 217.26 478.3 213.26 470.99 209.38 464.06 205.65 457.44 201.78 451.16 198.08 445 194.6 438.87 191.04 432.93 187.75 426.86 184.76 420.62 181.78 414.45 179.17 408.01 176.98 401.28 174.91 394.56 173.31 387.52 172.25 380.15 171.39 372.79 171.13 365.28 171.45 357.68 172.01 350.11 173.16 342.5 174.88 334.91 176.82 327.4 179.3 319.99 182.27 312.77 185.44 305.73 189.06 298.96 193.09 292.58 197.24 286.47 201.75 280.85 206.58 275.79 211.46 271.06 216.6 266.95 221.97 263.51 227.32 260.35 232.86 257.81 238.56 255.83 244.18 253.91 249.95 252.36 255.83 251.04 261.61 249.4 267.5 247.67 273.49 245.68 279.36 242.92 285.35 239.62 291.44 235.66 297.42 230.72 303.52 225.07 309.74 218.79 315.87 211.79 322.14 204.49 328.56 197.14 334.91 189.87 341.43 183.17 348.11 177.41 354.75 172.62 361.57 169.29 368.59 167.61 375.58 167.31 382.77 168.66 390.17 171.54 397.56 175.23 405.18 179.79 413.01 184.81" stroke-dasharray="1 5" transform="rotate(24.24, 400, 400)"></path><path d="M416.33 195.94C423.83 200.41 431.33 204.44 438.82 207.75 446.32 209.84 453.8 210.96 461.24 211.15 468.68 210.16 476.06 208.56 483.34 206.62 490.6 204.21 497.74 202.05 504.72 200.42 511.64 199.18 518.35 198.93 524.81 199.8 531.16 201.56 537.2 204.58 542.88 208.77 548.39 213.87 553.49 219.97 558.12 226.89 562.53 234.37 566.43 242.35 569.77 250.65 572.86 259.07 575.38 267.54 577.31 275.93 579.01 284.11 580.14 292.08 580.71 299.8 581.14 307.17 581.09 314.28 580.6 321.16 580.13 327.7 579.35 334.09 578.33 340.37 577.54 346.4 576.68 352.43 575.82 358.52 575.41 364.45 575.16 370.54 575.14 376.82 575.73 383.02 576.64 389.49 577.9 396.24 579.83 402.97 582.11 410.03 584.68 417.44 587.83 424.84 591.08 432.42 594.32 440.15 597.86 447.87 601.19 455.71 604.2 463.61 607.2 471.47 609.69 479.31 611.59 487.07 613.24 494.67 614.17 502.06 614.35 509.11 613.61 518.98 607.5 535 602.25 540.59 595.71 544.38 579.25 546.53 569.67 545.34 562.96 544.34 555.95 543.1 548.71 541.9 541.37 541.47 533.88 541.67 526.28 542.81 518.66 545.43 510.99 549.4 503.29 554.85 495.62 561.94 487.96 570.37 480.33 579.89 472.73 590.24 465.17 600.86 457.67 611.15 450.21 620.7 442.79 628.76 435.43 634.77 428.1 638.58 420.82 639.64 413.61 637.81 406.41 633.63 399.26 627.01 392.18 618.45 385.1 609.11 378.25 599.5 371.62 590.42 364.99 582.72 358.59 576.67 352.41 572.59 346.22 570.87 340.26 571.18 334.52 573.22 328.77 577.04 323.25 581.75 317.95 586.82 310.08 594.54 295.35 603.53 288.47 603.1 283.88 600.72 279.47 596.56 275.25 590.8 270.92 583.82 266.74 575.64 262.72 566.59 258.56 556.93 254.53 546.86 250.62 536.65 246.55 526.4 242.59 516.33 238.74 506.58 234.72 497.11 230.8 488.08 227 479.49 223.04 471.28 219.2 463.46 215.52 456 211.71 448.84 208.08 441.92 204.67 435.17 201.19 428.6 197.97 422.08 195.05 415.56 192.16 409.12 189.62 402.59 187.48 395.94 185.45 389.31 183.89 382.51 182.83 375.57 181.96 368.62 181.66 361.67 181.92 354.78 182.4 347.91 183.45 341.12 185.02 334.48 186.82 327.91 189.13 321.55 191.92 315.47 194.89 309.54 198.31 303.96 202.13 298.81 206.07 293.86 210.36 289.4 214.98 285.48 222.12 280.17 237.64 272.33 245.87 269.53 251.36 267.64 257 265.91 262.76 264.2 268.44 262 274.24 259.57 280.13 256.75 285.94 253.15 291.85 248.98 297.85 244.19 303.76 238.56 309.79 232.36 315.91 225.71 321.96 218.57 328.14 211.33 334.44 204.25 340.67 197.42 347.06 191.29 353.58 186.17 360.06 182.05 366.71 179.34 373.51 178.19 380.29 178.3 387.26 179.91 394.39 182.89 401.52 186.58 408.83 191.05 416.32 195.93" stroke-dasharray="9 9" transform="rotate(28.28, 400, 400)"></path><path d="M418.76 207.05C425.9 211.41 433.02 215.38 440.09 218.73 447.16 220.97 454.19 222.34 461.14 222.85 468.08 222.25 474.93 221.02 481.65 219.39 488.35 217.21 494.89 215.11 501.24 213.35 510.55 211.39 527.72 212.95 535.4 216.96 540.25 220.84 544.69 225.72 548.69 231.49 552.5 237.89 555.83 244.93 558.66 252.46 561.29 260.27 563.4 268.32 565 276.47 566.42 284.62 567.36 292.7 567.82 300.64 568.2 308.4 568.17 315.98 567.79 323.35 567.47 330.48 566.9 337.44 566.14 344.26 565.62 350.87 565.05 357.4 564.5 363.9 564.37 370.26 564.37 376.66 564.57 383.13 565.32 389.53 566.33 396.07 567.63 402.77 569.52 409.45 571.69 416.32 574.11 423.4 577.03 430.47 580.01 437.59 582.98 444.7 586.21 451.81 589.26 458.89 592.02 465.87 594.8 472.8 597.14 479.56 598.96 486.08 601.09 495.43 601.6 511.59 599.85 517.96 596.82 523.04 586.9 528.78 580.2 529.51 575.27 529.6 569.86 529.2 564.06 528.47 558.06 528.06 551.73 527.73 545.14 527.72 538.44 528.64 531.54 530.33 524.51 533.02 517.42 537.09 510.24 542.37 503.01 548.91 495.78 556.73 488.52 565.55 481.26 575.08 474.03 585.06 466.81 594.98 459.63 604.32 452.47 612.77 445.36 619.69 438.3 624.63 431.26 627.56 424.26 628 417.34 625.86 410.43 621.69 403.57 615.37 396.79 607.33 390.01 598.6 383.45 589.58 377.12 580.94 370.78 573.44 364.66 567.31 358.76 562.84 350.01 560.12 333.54 565.38 325.82 571.5 318.25 578.59 304.03 588.86 297.34 590.31 292.87 589.6 288.55 587.29 284.4 583.49 280.14 578.52 276.01 572.29 272.03 565.04 267.91 557.01 263.9 548.33 260.01 539.23 255.97 529.84 252.03 520.35 248.2 510.92 244.21 501.55 240.33 492.4 236.56 483.55 232.66 474.91 228.88 466.6 225.26 458.62 221.53 450.86 217.98 443.38 214.64 436.15 211.26 429.06 208.13 422.15 205.3 415.36 202.49 408.65 200.03 402 197.95 395.39 195.98 388.8 194.45 382.22 193.4 375.63 192.53 369.05 192.2 362.62 192.4 356.37 192.8 350.13 193.74 344.1 195.18 338.32 197.9 329.88 205.93 314.78 211.12 308.3 216.87 302.43 230.09 293.06 237.4 289.45 244.97 286.07 260.98 279.8 269.32 276.33 274.87 273.41 280.54 270.15 286.31 266.47 292 262.04 297.8 257.09 303.69 251.61 309.51 245.46 315.43 238.91 321.44 232.08 327.39 224.99 333.44 217.99 339.6 211.32 345.71 205.04 351.94 199.55 358.29 195.12 364.61 191.66 371.06 189.56 377.64 188.92 384.21 189.39 390.92 191.23 397.77 194.29 404.61 197.96 411.61 202.32 418.75 207.05" stroke-dasharray="6 11" transform="rotate(32.32, 400, 400)"></path><path d="M420.16 218.17C426.93 222.4 433.64 226.3 440.27 229.65 446.91 232.03 453.46 233.63 459.91 234.45 466.34 234.22 472.65 233.39 478.81 232.11 484.94 230.22 490.88 228.29 496.62 226.54 505.01 224.22 520.28 223.79 527.02 226.28 533.2 230.83 543.29 245.36 547.12 254.82 549.37 261.73 551.17 269.02 552.52 276.57 553.75 284.27 554.57 292.07 554.98 299.86 555.36 307.62 555.41 315.29 555.16 322.83 555 330.25 554.65 337.53 554.16 344.66 553.9 351.66 553.61 358.54 553.34 365.32 553.45 372 553.68 378.64 554.07 385.24 554.95 391.8 556.05 398.37 557.38 404.97 559.22 411.56 561.28 418.21 563.53 424.9 566.23 431.6 568.96 438.18 571.66 444.64 574.61 451.07 577.37 457.33 579.89 463.37 583.53 472.18 588.45 487.9 589.43 494.51 587.59 504.3 577.52 512.06 571.8 512.53 565.19 512.82 549.6 513.83 540.86 515.59 534.82 517.9 528.55 521.03 522.12 525.11 515.61 530.39 508.98 536.69 502.27 543.97 495.53 552.21 488.73 561.09 481.92 570.35 475.1 579.75 468.28 588.82 461.48 597.14 454.68 604.47 447.92 610.29 441.19 614.24 434.48 616.35 427.81 616.25 421.2 613.87 414.6 609.74 408.05 603.73 401.57 596.21 395.09 588.08 388.83 579.64 382.78 571.47 376.72 564.22 370.88 558.08 365.24 553.32 356.86 549.61 341.07 551.92 333.65 556.61 326.34 562.76 312.54 573.3 306.01 576.03 299.51 576.24 287.06 568.53 281.07 560.97 276.99 554.77 273.02 547.76 269.15 540.14 265.15 532.07 261.24 523.65 257.44 515.08 253.5 506.35 249.67 497.65 245.95 489.07 242.12 480.54 238.41 472.21 234.86 464.14 231.23 456.18 227.78 448.47 224.54 441.02 221.26 433.67 218.24 426.54 215.5 419.62 212.79 412.76 210.42 406.06 208.41 399.52 206.5 393 205.01 386.6 203.98 380.34 202.93 371.08 203.63 353.97 205.35 346.18 207.83 338.76 215.26 325.77 220.09 320.26 225.48 315.17 237.95 306.71 244.89 303.11 252.11 299.41 267.48 291.6 275.54 287 280.92 283.28 286.42 279.2 292.02 274.69 297.57 269.55 303.22 263.97 308.96 257.99 314.65 251.53 320.43 244.83 326.29 238.04 332.1 231.19 338.01 224.58 344 218.45 349.96 212.81 356.02 208.02 362.17 204.28 368.3 201.49 374.53 199.98 380.87 199.79 387.2 200.61 393.64 202.64 400.18 205.75 406.73 209.36 413.39 213.6 420.15 218.17" stroke-dasharray="2 4" transform="rotate(36.36, 400, 400)"></path><path d="M420.47 229.29C426.84 233.38 433.12 237.19 439.31 240.53 445.49 243.01 451.57 244.81 457.51 245.92 469.34 245.3 480.56 242.85 490.91 239.88 501.04 236.42 510.1 235.12 517.86 236.76 525.19 240.73 531.05 248.11 535.29 258.28 539.11 270.29 541.4 283.93 542.26 298.33 543.14 313.1 543.08 327.83 542.4 342.15 542.63 356.25 542.95 369.92 543.65 383.14 544.64 389.71 545.79 396.2 547.13 402.62 548.91 409.03 550.86 415.38 552.96 421.66 555.44 427.93 557.93 433.97 560.37 439.76 563.04 445.53 565.55 451.01 567.83 456.18 572.5 466.33 575.6 474.92 576.85 481.61 576.37 489.8 562.89 496.98 550.66 499.27 541.23 503.29 530.54 509.56 518.98 518.97 507.13 532.2 494.72 548.23 482.07 565.55 469.37 582.43 456.57 596 443.86 603.58 437.51 604.98 431.2 604.4 424.92 601.85 418.66 597.79 412.43 592.11 406.27 585.09 400.1 577.54 394.13 569.69 388.36 561.99 382.59 555.03 377 548.95 371.61 544 360.77 538.7 350.65 538.57 341.25 542.3 331.68 549.4 322.72 556.19 314.37 560.62 305.71 562.86 297.51 560.61 289.78 554.1 281.62 544.61 273.82 532.05 266.42 517.69 258.59 502.23 251.17 486.39 244.34 470.94 237.26 455.54 230.94 440.87 225.65 427.14 223.06 420.33 220.77 413.72 218.84 407.32 217.01 400.95 215.57 394.76 214.55 388.79 213.5 380 214 364.12 215.53 357.04 218.41 347.81 223 339.97 229.06 333.47 235.63 326.76 243.45 321.04 252.27 315.92 261.27 309.75 271.07 303.26 281.43 295.87 291.75 286.43 302.54 275.57 313.67 263.46 324.65 250.19 336 237.15 347.61 225.74 359.12 216.54 370.98 211.29 383.13 210.83 389.19 211.94 395.34 214.12 401.56 217.25 407.78 220.8 414.08 224.89 420.46 229.29" stroke-dasharray="6 1" transform="rotate(40.400000000000006, 400, 400)"></path><path d="M419.65 240.41C431.58 247.78 443.06 253.67 453.96 257.26 464.79 257.4 474.94 255.75 484.2 253.3 493.25 249.92 501.26 248 508.04 248.37 514.48 250.43 519.59 255.53 523.27 263.31 526.68 272.91 528.8 284.41 529.71 297.06 530.77 310.45 531.07 324.19 530.86 337.8 531.53 351.47 532.27 364.8 533.3 377.59 535.8 390.36 538.86 402.65 542.38 414.28 547.23 425.92 551.83 436.28 555.81 445.24 561.5 457.63 564.24 473.8 560.36 478.14 556.27 481.28 550.34 484.32 542.85 488.18 534.71 494.51 525.31 503.1 515.01 514.37 504.38 528.48 493.12 544.37 481.51 560.53 469.82 575.5 457.93 586.91 446.03 592.66 434.15 592.78 422.3 586.2 410.62 573.97 398.95 559.92 387.95 546.04 377.66 534.88 367.3 528.63 357.57 526.83 348.48 528.67 339.23 534.03 330.51 539.88 322.31 544.46 313.84 547.96 305.78 547.99 298.13 544.38 290.12 538.27 282.44 529.05 275.16 517.64 267.52 504.88 260.31 491.14 253.68 477.21 246.88 463.03 240.82 449.21 235.76 436.11 230.87 423.06 227.24 410.76 225.13 399.38 223.59 387.99 223.83 378 225.74 369.33 228.31 360.57 232.48 353.01 238.03 346.48 244.08 339.54 251.34 333.17 259.56 326.96 268.01 319.61 277.24 311.67 287.06 302.78 296.89 292.22 307.2 280.58 317.85 268.22 328.41 255.39 339.31 243.33 350.45 233.28 361.51 225.57 372.86 221.62 384.41 222.03 395.94 225.37 407.72 231.92 419.64 240.4" stroke-dasharray="3 1" transform="rotate(44.44, 400, 400)"></path><path d="M417.77 251.53C428.85 258.63 439.42 264.51 449.34 268.45 459.21 269.32 468.35 268.48 476.61 266.68 488.23 262.56 505.67 263.11 511.2 270.22 514.32 277.37 516.36 286.52 517.4 297.06 518.67 308.51 519.32 320.66 519.56 332.99 520.61 345.59 521.71 358.02 523.01 369.99 525.57 382.01 528.54 393.49 531.81 404.19 536.21 414.89 540.33 424.23 543.87 432.17 549.01 443.24 551.95 458.68 548.92 464.28 545.64 468.8 540.71 473.76 534.33 479.86 527.39 488.22 519.22 498.58 510.13 511.01 500.73 525.32 490.63 540.51 480.1 555.13 469.46 568.07 458.53 577.4 447.51 581.5 436.48 580.75 425.4 574.22 414.4 562.86 403.4 549.91 392.98 536.89 383.17 525.94 373.3 518.97 363.96 515.74 355.18 515.81 346.25 519.32 337.77 523.88 329.75 528.01 321.49 531.98 313.59 533.47 306.07 532.07 298.25 528.79 290.74 522.63 283.63 514.17 276.24 504.36 269.28 493.15 262.9 481.27 256.4 468.93 250.64 456.53 245.82 444.49 241.2 432.42 237.75 420.87 235.7 410.08 234.19 399.29 234.31 389.69 235.98 381.22 238.24 372.61 241.99 364.89 247.03 357.86 252.54 350.33 259.2 343 266.8 335.54 274.64 327.01 283.26 317.81 292.46 307.77 301.72 296.53 311.47 284.61 321.56 272.51 331.61 260.52 341.98 249.72 352.55 241.17 363.09 234.94 373.86 232.22 384.75 233.4 395.64 237.03 406.69 243.44 417.77 251.53" stroke-dasharray="9 10" transform="rotate(48.48, 400, 400)"></path><path d="M414.91 262.65C425.14 269.45 434.8 275.28 443.8 279.49 452.74 281.02 460.95 281 468.3 279.94 478.66 276.41 494.16 274.74 499.18 279.15 502.12 284.04 504.15 290.86 505.37 299.17 506.86 308.4 507.85 318.57 508.5 329.21 509.88 340.23 511.27 351.32 512.79 362.13 515.37 373.05 518.22 383.52 521.23 393.29 525.21 403.06 528.87 411.62 531.98 418.95 536.57 429.41 539.53 445.87 537.18 453.39 534.59 459.46 530.52 466.28 525.14 474.33 519.27 484.2 512.26 495.66 504.32 508.52 496.1 522.4 487.15 536.4 477.7 549.23 468.14 560.11 458.2 567.46 448.08 570.1 437.94 568.63 427.67 562.25 417.39 551.74 407.11 539.88 397.29 527.77 387.97 517.15 378.61 509.71 369.68 505.3 361.22 503.77 352.64 505.45 344.44 508.48 336.63 511.7 328.62 515.44 320.93 517.6 313.59 517.63 306 516.46 298.72 512.81 291.84 506.99 284.74 500.01 278.08 491.41 271.99 481.79 265.84 471.64 260.39 461.02 255.85 450.35 251.5 439.58 248.24 429.01 246.28 418.86 244.79 408.71 244.81 399.42 246.24 390.92 248.21 382.28 251.54 374.19 256.07 366.44 261.04 358.2 267.09 349.9 274.02 341.3 281.22 331.83 289.17 321.74 297.7 311.05 306.33 299.64 315.44 287.98 324.88 276.62 334.33 265.81 344.09 256.48 354.02 249.49 363.95 244.7 374.06 243.11 384.24 244.93 394.42 248.76 404.69 254.98 414.91 262.65" stroke-dasharray="8 4" transform="rotate(52.52, 400, 400)"></path><path d="M411.25 273.77C420.6 280.23 429.39 285.95 437.5 290.36 445.58 292.48 452.94 293.22 459.49 292.95 468.75 290.32 482.68 287.64 487.34 290.03 490.18 293.04 492.26 297.78 493.67 303.97 495.38 310.96 496.67 319.03 497.67 327.78 499.32 336.93 500.95 346.41 502.62 355.86 505.18 365.43 507.89 374.78 510.66 383.67 514.23 392.56 517.45 400.53 520.17 407.61 523.15 414.75 525.25 421.17 526.33 427.06 527.21 433.35 526.84 439.57 525.21 446.05 523.17 453.54 519.84 461.87 515.33 471.29 510.43 482.03 504.46 493.88 497.6 506.47 490.49 519.39 482.65 531.84 474.26 542.71 465.76 551.55 456.83 557.09 447.62 558.48 438.4 556.44 428.96 550.28 419.43 540.62 409.9 529.83 400.71 518.64 391.92 508.49 383.09 500.8 374.61 495.5 366.51 492.61 358.32 492.57 350.43 493.97 342.89 495.98 335.18 498.95 327.76 501.06 320.66 501.76 313.37 501.87 306.38 500.03 299.79 496.3 293.04 491.7 286.72 485.49 280.96 478.04 275.19 470.11 270.08 461.38 265.83 452.23 261.77 442.95 258.72 433.49 256.85 424.05 255.41 414.61 255.33 405.62 256.54 397.05 258.21 388.36 261.14 379.88 265.16 371.46 269.59 362.65 275.01 353.6 281.27 344.2 287.8 334.22 295.04 323.77 302.84 313.01 310.77 301.98 319.18 291.08 327.9 280.86 336.68 271.49 345.74 263.74 354.96 258.31 364.19 254.87 373.58 254.27 383 256.62 392.43 260.57 401.89 266.54 411.25 273.77" stroke-dasharray="3 2" transform="rotate(56.56, 400, 400)"></path><path d="M406.97 284.89C415.46 290.99 423.39 296.54 430.68 301.07 441.23 304.4 458.69 304.1 465.44 302.7 475.5 303.66 485.01 319.73 487.08 329.67 488.94 336.93 490.74 344.72 492.51 352.75 495.01 360.89 497.56 369.09 500.08 377.15 503.26 385.22 506.08 392.76 508.41 399.78 511.01 406.9 512.82 413.7 513.76 420.34 514.6 427.38 514.37 434.65 513.06 442.35 511.46 450.86 508.74 460.15 504.97 470.26 500.91 481.18 495.87 492.73 490 504.44 483.92 515.97 477.11 526.61 469.74 535.49 462.27 542.4 454.33 546.31 446.05 546.64 437.75 544.19 429.17 538.3 420.41 529.5 411.65 519.75 403.13 509.52 394.91 499.94 386.66 492.22 378.67 486.3 370.98 482.31 363.23 480.75 355.72 480.58 348.5 481.2 341.16 483.03 334.07 484.55 327.29 485.24 320.37 485.85 313.73 485.05 307.49 482.73 301.14 479.89 295.21 475.57 289.83 469.98 284.46 464.02 279.72 457.07 275.78 449.4 272.03 441.62 269.19 433.32 267.43 424.66 266.04 416 265.88 407.39 266.87 398.87 268.27 390.26 270.8 381.57 274.33 372.77 278.21 363.69 283.01 354.32 288.59 344.65 294.42 334.68 300.93 324.45 307.97 314.19 315.15 304.04 322.79 294.32 330.75 285.54 338.78 277.75 347.08 271.63 355.52 267.69 364 265.48 372.6 265.73 381.22 268.47 389.85 272.46 398.47 278.13 406.97 284.89" stroke-dasharray="3 9" transform="rotate(60.599999999999994, 400, 400)"></path><path d="M402.31 296C409.94 301.71 417.05 307.04 423.57 311.6 433.02 315.62 448.7 317.55 454.85 316.97 464.42 317.11 474.32 327.82 476.73 335.33 478.72 340.88 480.63 347.1 482.45 353.8 484.86 360.58 487.24 367.69 489.51 375 492.32 382.31 494.75 389.47 496.73 396.49 498.95 403.59 500.48 410.72 501.27 417.97 502.02 425.54 501.86 433.5 500.79 441.93 499.53 450.89 497.3 460.47 494.17 470.55 490.81 480.99 486.59 491.63 481.6 502 476.44 511.84 470.6 520.57 464.19 527.48 457.7 532.62 450.71 535.12 443.35 534.6 435.96 531.88 428.24 526.34 420.28 518.38 412.32 509.65 404.5 500.39 396.89 491.49 389.26 483.93 381.81 477.66 374.6 472.87 367.34 470.05 360.28 468.46 353.46 467.71 346.57 468.21 339.88 468.76 333.49 468.94 327 469.39 320.79 468.91 314.95 467.32 309.05 465.52 303.56 462.48 298.59 458.28 293.65 453.85 289.31 448.38 285.7 442.02 282.26 435.58 279.65 428.39 278.01 420.57 276.67 412.74 276.44 404.66 277.24 396.4 278.38 388.11 280.53 379.55 283.58 370.78 286.93 361.88 291.12 352.69 296.02 343.33 301.14 333.91 306.9 324.45 313.16 315.22 319.56 306.33 326.4 298.09 333.54 290.94 340.76 284.79 348.25 280.25 355.87 277.68 363.54 276.54 371.32 277.48 379.09 280.49 386.89 284.42 394.67 289.75 402.31 296" stroke-dasharray="2 9" transform="rotate(64.64, 400, 400)"></path><path d="M397.52 307.12C404.31 312.4 410.64 317.45 416.44 321.95 424.87 326.48 438.96 330.48 444.62 330.92 453.77 331.37 463.96 338.91 466.6 344.57 468.67 348.76 470.61 353.69 472.43 359.25 474.71 364.85 476.91 370.99 478.94 377.6 481.39 384.2 483.47 390.97 485.12 397.87 486.98 404.85 488.24 412.07 488.87 419.57 489.5 427.29 489.37 435.43 488.47 443.96 487.45 452.77 485.62 461.97 483.01 471.36 480.24 480.78 476.71 490.05 472.5 498.75 468.16 506.77 463.19 513.58 457.67 518.66 452.09 522.22 446.01 523.54 439.54 522.37 433.04 519.52 426.19 514.38 419.04 507.26 411.9 499.53 404.81 491.25 397.86 483.1 390.9 475.89 384.06 469.53 377.39 464.25 370.69 460.48 364.15 457.71 357.81 455.72 351.42 454.88 345.22 454.3 339.29 453.64 330.44 453.11 314.3 448.69 307.26 444.17 302.79 440.74 298.86 436.35 295.59 431.05 292.47 425.7 290.1 419.52 288.58 412.55 287.33 405.59 287.04 398.2 287.66 390.5 288.56 382.8 290.35 374.76 292.93 366.49 295.78 358.21 299.37 349.73 303.59 341.22 308.02 332.83 313.03 324.58 318.49 316.75 324.1 309.39 330.11 302.8 336.41 297.32 342.79 292.77 349.42 289.68 356.19 288.3 363.01 288.05 369.93 289.51 376.86 292.65 383.8 296.45 390.72 301.39 397.52 307.12" stroke-dasharray="0 0" transform="rotate(68.68, 400, 400)"></path><path d="M392.87 318.24C404.81 327.23 415.14 335.08 423.58 340.78 432.03 342.65 438.75 343.85 443.74 345.76 449.17 346.69 453.45 350.22 456.69 356.64 461.15 363.22 465.14 372.59 468.36 384.46 472.88 396.33 475.71 409.71 476.57 424.16 477.56 439.07 475.88 455.39 471.6 471.86 466.93 487.54 459.67 500.92 450.32 509 440.76 512.22 429.4 507.86 416.77 496.14 404.13 482.54 391.49 468.3 379.39 456.37 367.24 448.82 355.5 443.85 344.73 440.07 333.87 438.42 324.01 435.17 315.86 429.28 307.96 423.41 302.11 414.34 299.16 402.15 297.05 389.96 298.31 375.97 302.41 361.25 307.33 346.81 314.8 332.27 324.05 319.4 333.77 308.49 344.91 301.29 356.67 299.56 368.6 301.15 380.92 307.81 392.87 318.24" stroke-dasharray="7 10" transform="rotate(72.72, 400, 400)"></path><path d="M388.6 329.36C398.95 337.53 407.99 345.15 415.52 351.31 423.09 354.5 429.31 357.05 434.14 359.83 439.37 361.41 443.65 364.73 446.99 370.3 451.25 375.75 454.95 383.74 457.79 394.28 461.59 404.82 463.85 417.05 464.4 430.27 465.14 443.59 463.66 457.73 460.04 471.27 456.2 483.62 450.16 493.42 442.28 498.52 434.25 499.9 424.55 495.33 413.58 485.02 402.6 473.29 391.46 460.58 380.7 449.16 369.92 440.72 359.47 434.12 349.86 428.73 340.26 425.28 331.56 421.1 324.39 415.31 317.48 409.78 312.36 401.83 309.73 391.34 307.78 380.84 308.69 368.92 312.01 356.63 315.98 344.74 322.16 333.27 329.9 323.72 338.04 315.9 347.46 311.43 357.5 311.45 367.67 313.77 378.26 320.06 388.6 329.36" stroke-dasharray="9 5" transform="rotate(76.76, 400, 400)"></path><path d="M384.96 340.48C393.75 347.74 401.56 354.9 408.2 361.19 414.9 365.32 420.58 368.99 425.17 372.67 430.07 375.19 434.21 378.83 437.49 384.04 441.43 389 444.77 396.01 447.21 405.2 450.35 414.38 452.09 424.97 452.38 436.2 452.85 447.32 451.52 458.65 448.46 468.92 445.29 477.98 440.31 484.57 433.75 487.23 427.1 487.27 418.97 482.77 409.64 473.91 400.32 464 390.75 452.98 381.44 442.5 372.14 433.89 363.08 426.4 354.76 419.91 346.49 414.94 339.01 409.78 332.88 403.82 326.98 398.21 322.6 391.04 320.31 382.17 318.53 373.3 319.14 363.64 321.75 354.06 324.85 344.89 329.81 336.51 336.12 330.07 342.73 324.96 350.49 322.69 358.83 323.93 367.29 326.63 376.17 332.36 384.96 340.48" stroke-dasharray="11 0" transform="rotate(80.80000000000001, 400, 400)"></path><path d="M382.14 351.6C389.41 357.87 396 364.33 401.74 370.38 407.54 375.01 412.6 379.41 416.81 383.75 421.27 387.17 425.1 391.26 428.16 396.32 431.68 401.12 434.6 407.35 436.63 415.12 439.15 422.88 440.43 431.5 440.5 440.31 440.73 448.92 439.53 457.26 436.94 464.34 432.3 472.39 416.2 472.27 405.19 462.79 397.5 454.68 389.54 445.45 381.76 436.28 374.01 428.16 366.44 420.56 359.49 413.66 352.61 407.79 346.41 401.97 341.33 395.95 336.45 390.23 332.82 383.73 330.88 376.4 329.32 369.08 329.67 361.64 331.65 354.71 335.89 345.29 351.03 335.36 360.83 336.96 367.63 339.71 374.87 344.73 382.14 351.6" stroke-dasharray="1 6" transform="rotate(84.84, 400, 400)"></path><path d="M380.29 362.72C391.87 372.38 401.85 383 409.09 392.7 416.97 400 423.12 409.6 426.06 422.16 430.19 434.71 429.9 447.98 425.61 457.26 421.36 463.91 412.61 462.7 400.45 451.67 388.28 438.85 375.24 423.39 364.14 409.78 353.31 398.43 344.8 386.82 341.46 375.13 339.07 363.43 342.57 353.78 349.9 349.46 357.76 346.97 368.71 351.49 380.29 362.72" stroke-dasharray="2 10" transform="rotate(88.88, 400, 400)"></path><path d="M379.52 373.84C388.18 381.5 396.02 390.62 401.97 399.36 408.27 406.84 413.21 415.52 415.48 424.97 418.17 438.64 407.97 450.04 395.68 440.55 386.66 431.09 377 419.08 368.8 407.85 360.8 397.58 354.53 387.41 352.03 378.59 351.24 366.81 366.92 363.3 379.52 373.84" stroke-dasharray="6 3" transform="rotate(92.92, 400, 400)"></path><path d="M379.86 384.96C391.43 394.96 402.11 410.45 404.91 423.03 408.84 435.6 403.05 440.12 391.15 429.43 379.25 417.01 366.15 398.03 362.61 386.13 360.09 374.22 368.28 373.33 379.86 384.96" stroke-dasharray="8 9" transform="rotate(96.96, 400, 400)"></path></g></svg>